<?xml version="1.0" encoding="UTF-8" standalone="no"?>
<svg
   version="1.0"
   width="260.000000pt"
   height="260.000000pt"
   viewBox="0 0 260.000000 260.000000"
   preserveAspectRatio="xMidYMid meet"
   id="svg6"
   sodipodi:docname="safari-pinned-tab.svg"
   inkscape:version="1.4 (1:1.4+202410161351+e7c3feb100)"
   xmlns:inkscape="http://www.inkscape.org/namespaces/inkscape"
   xmlns:sodipodi="http://sodipodi.sourceforge.net/DTD/sodipodi-0.dtd"
   xmlns="http://www.w3.org/2000/svg"
   xmlns:svg="http://www.w3.org/2000/svg">
  <defs
     id="defs6" />
  <sodipodi:namedview
     id="namedview6"
     pagecolor="#ffffff"
     bordercolor="#000000"
     borderopacity="0.25"
     inkscape:showpageshadow="2"
     inkscape:pageopacity="0.0"
     inkscape:pagecheckerboard="0"
     inkscape:deskcolor="#d1d1d1"
     inkscape:document-units="pt"
     inkscape:zoom="1.6379041"
     inkscape:cx="313.81569"
     inkscape:cy="163.92901"
     inkscape:window-width="1920"
     inkscape:window-height="1011"
     inkscape:window-x="0"
     inkscape:window-y="32"
     inkscape:window-maximized="1"
     inkscape:current-layer="svg6" />
  <metadata
     id="metadata1">
Created by potrace 1.14, written by Peter Selinger 2001-2017
</metadata>
  <g
     id="g3"
     transform="matrix(0.34312994,0,0,0.34312994,-779.22964,122.0766)"
     style="fill:#000000;fill-opacity:1">
    <path
       id="path52-2"
       d="m 2521.5539,-299.65719 c -7.066,2.45176 -17.2689,8.40449 -26.4074,14.23848 v 0 c -0.2117,0.13703 -0.4235,0.25889 -0.6381,0.39594 v 0 c -3.472,2.10151 -8.4366,5.28271 -14.4364,9.51769 v 0 c -1.7665,1.26245 -3.6398,2.61777 -5.5887,4.08122 v 0 c -0.1364,0.0898 -0.2438,0.16757 -0.3185,0.22689 v 0 c -0.047,0.032 -0.078,0.0625 -0.109,0.0776 v 0 c -0.06,0.0289 -0.1054,0.0761 -0.1672,0.12177 v 0 c -103.3426,74.11174 -163.9438,204.058157 -137.6597,345.719652 v 0 c 25.9339,139.794538 137.0383,249.021368 277.1801,273.011938 v 0 c 125.7342,21.52379 241.7194,-25.22404 317.0708,-109.20684 v 0 c -24.7766,27.24192 -55.6596,48.82205 -90.4715,62.58695 v 0 c -27.6396,10.93391 -57.7916,16.95064 -89.3297,16.95064 v 0 c -99.1516,0 -184.3846,-59.35995 -222.1813,-144.47111 v 0 c -1.0356,-1.26401 -2.0406,-2.52947 -3.0304,-3.82238 v 0 c 0.6548,0.4858 1.3097,0.97468 1.9812,1.44521 v 0 C 2514.7309,141.71913 2507.665,109.2218 2507.665,75.051004 v 0 c 0,-0.478161 0,-0.953233 0,-1.428486 v 0 c 0.3457,-60.109143 39.6683,-112.567708 96.6069,-131.837638 v 0 c 45.4886,-15.395843 77.4927,-58.28646 84.3788,-101.73898 v 0 c 1.034,-6.51621 1.5823,-13.18622 1.5823,-19.97958 v 0 c 0,-60.54634 -42.4262,-111.1364 -99.1669,-123.77591 v 0 c -7.7057,-1.70406 -15.67,-2.72588 -23.8325,-2.95276 v 0 c -1.2791,-0.0473 -2.5431,-0.1065 -3.8375,-0.1065 v 0 c -14.6648,0 -28.7511,2.52638 -41.8475,7.11164 m -26.7896,119.72364 c 0,-37.91093 30.7337,-68.64171 68.6448,-68.64171 v 0 c 37.9108,0 68.6431,30.73078 68.6431,68.64171 v 0 c 0,37.91094 -30.7323,68.64476 -68.6431,68.64476 v 0 c -37.9111,0 -68.6448,-30.73382 -68.6448,-68.64476"
       style="fill:#000000;stroke:none;stroke-width:1.52283;fill-opacity:1" />
    <path
       id="path53-9"
       d="m 2725.3944,-303.2054 c 78.0893,16.26386 136.7489,85.45988 136.7489,168.36295 v 0 c 0,7.32633 -0.4553,14.52783 -1.3386,21.61052 v 0 c -3.1979,25.53944 -11.9969,49.333726 -25.1284,70.118869 v 0 c -27.0195,42.76877756 -79.5787,60.884414 -128.087,46.5286579 v 0 c -11.4105,-3.37764222 -23.4912,-5.1928553 -35.9983,-5.1928553 v 0 c -23.5262,0 -45.5312,6.4263511 -64.4294,17.5902414 v 0 c -37.34,22.08103 -62.3905,62.723999 -62.3905,109.232847 v 0 c 0,57.03003 37.643,105.25826 89.4192,121.2175 v 0 c 14.5902,2.96947 29.5888,4.78161 44.8947,5.37409 v 0 c 3.6853,0.15266 7.3705,0.24517 11.0862,0.24517 v 0 c 146.4341,0 266.54,-112.68966 278.3739,-256.0644118 v 0 c 0.6381,-7.6750772 0.9747,-15.4415332 0.9747,-23.2841202 v 0 c 0,-106.005958 -59.0417,-198.211998 -146.0398,-245.543188 v 0 c -38.4057,-20.89176 -82.2497,-33.03027 -128.8636,-33.75971 v 0 c 10.5243,0.27411 20.8034,1.49239 30.778,3.56344 m -122.372,428.48731 c 0,-37.911033 30.7309,-68.644744 68.6433,-68.644744 v 0 c 37.9109,0 68.6448,30.733711 68.6448,68.644744 v 0 c 0,37.91086 -30.7339,68.64159 -68.6448,68.64159 v 0 c -37.9124,0 -68.6433,-30.73073 -68.6433,-68.64159"
       style="fill:#000000;stroke:none;stroke-width:1.52283;fill-opacity:1" />
  </g>
</svg>
