<?xml version="1.0" standalone="no"?>
<!DOCTYPE svg PUBLIC "-//W3C//DTD SVG 20010904//EN"
 "http://www.w3.org/TR/2001/REC-SVG-20010904/DTD/svg10.dtd">
<svg version="1.0" xmlns="http://www.w3.org/2000/svg"
 width="260.000000pt" height="260.000000pt" viewBox="0 0 260.000000 260.000000"
 preserveAspectRatio="xMidYMid meet">
<metadata>
Created by potrace 1.14, written by Peter Selinger 2001-2017
</metadata>
<g transform="translate(0.000000,260.000000) scale(0.100000,-0.100000)"
fill="#000000" stroke="none">
<path d="M1169 2538 c-88 -31 -150 -83 -185 -154 l-28 -56 0 -680 c-1 -374 2
-682 6 -685 5 -2 50 18 100 45 51 27 143 75 203 107 61 32 133 70 160 85 28
15 87 47 133 70 45 24 82 48 83 54 0 6 1 234 1 506 1 479 0 497 -20 542 -29
67 -76 114 -149 150 -88 43 -208 49 -304 16z"/>
<path d="M438 1965 c-80 -29 -126 -72 -165 -155 l-26 -54 -1 -579 c-1 -318 1
-583 4 -587 3 -4 127 57 275 136 149 79 274 145 278 146 4 2 8 202 8 445 0
432 -1 444 -22 493 -27 63 -102 132 -166 154 -56 19 -134 20 -185 1z"/>
<path d="M1973 1964 c-53 -20 -128 -85 -154 -136 -26 -51 -35 -133 -31 -301
l3 -138 42 25 c48 28 263 141 415 218 l102 53 0 40 c0 50 -37 130 -79 172 -72
72 -204 102 -298 67z"/>
<path d="M2309 1607 c-19 -12 -43 -27 -54 -34 -164 -97 -457 -278 -461 -284
-6 -10 -6 -1240 0 -1246 7 -7 541 -7 552 0 9 5 12 1573 3 1582 -3 2 -21 -6
-40 -18z"/>
<path d="M1302 995 c-184 -111 -337 -206 -340 -212 -9 -14 -8 -730 1 -739 7
-8 661 -9 673 -1 9 5 12 1143 3 1151 -2 2 -154 -88 -337 -199z"/>
<path d="M794 690 c-7 -7 -265 -164 -511 -312 -18 -11 -33 -23 -34 -26 -1 -4
-2 -76 -2 -160 l-2 -152 30 -1 c141 -3 527 0 531 4 6 5 7 647 1 653 -2 2 -8
-1 -13 -6z"/>
</g>
</svg>
